<?xml version="1.0" encoding="utf-8"?>
<!-- Generator: Adobe Illustrator 24.3.0, SVG Export Plug-In . SVG Version: 6.00 Build 0)  -->
<svg version="1.1" id="Layer_1" xmlns="http://www.w3.org/2000/svg" xmlns:xlink="http://www.w3.org/1999/xlink" x="0px" y="0px"
	 viewBox="0 0 425 425" enable-background="new 0 0 425 425" xml:space="preserve">
<g>
	<linearGradient id="SVGID_1_" gradientUnits="userSpaceOnUse" x1="-457.9831" y1="541.5854" x2="1550.0128" y2="-550.4105">
		<stop  offset="0" style="stop-color:#00C9FF"/>
		<stop  offset="1" style="stop-color:#3B72DE"/>
	</linearGradient>
	<path fill="url(#SVGID_1_)" d="M212.5,262.332c22.613,0,41.01-18.398,41.01-41.012v-10.586c0-2.695-2.186-4.881-4.879-4.881
		c-2.697,0-4.881,2.186-4.881,4.881v5.705h-62.5V154.74h62.5v5.323c0,2.695,2.184,4.881,4.881,4.881
		c2.694,0,4.879-2.186,4.879-4.881v-27.463c0-7.858-2.223-15.206-6.072-21.451c-0.107-0.207-0.232-0.402-0.368-0.59
		c-7.293-11.397-20.064-18.97-34.57-18.97c-22.613,0-41.012,18.397-41.012,41.011v88.72
		C171.488,243.935,189.887,262.332,212.5,262.332z M212.5,252.57c-15.57,0-28.517-11.448-30.868-26.369h61.735
		C241.017,241.122,228.07,252.57,212.5,252.57z M212.5,101.352c7.559,0,14.5,2.699,19.91,7.184H212.5
		c-2.695,0-4.881,2.185-4.881,4.881c0,2.695,2.186,4.881,4.881,4.881h27.777c2.217,4.288,3.473,9.152,3.473,14.304v12.378h-62.5
		v-8.46H212.5c2.695,0,4.881-2.185,4.881-4.881c0-2.696-2.186-4.881-4.881-4.881h-30.7
		C184.545,112.31,197.267,101.352,212.5,101.352z"/>
	<linearGradient id="SVGID_2_" gradientUnits="userSpaceOnUse" x1="-446.2011" y1="563.2636" x2="1561.8135" y2="-528.7426">
		<stop  offset="0" style="stop-color:#00C9FF"/>
		<stop  offset="1" style="stop-color:#3B72DE"/>
	</linearGradient>
	<path fill="url(#SVGID_2_)" d="M248.631,170.778c-2.697,0-4.881,2.185-4.881,4.881v19.478c0,2.696,2.184,4.881,4.881,4.881
		c2.694,0,4.879-2.184,4.879-4.881v-19.478C253.51,172.963,251.325,170.778,248.631,170.778z"/>
	<linearGradient id="SVGID_3_" gradientUnits="userSpaceOnUse" x1="-417.7075" y1="615.644" x2="1590.2949" y2="-476.3555">
		<stop  offset="0" style="stop-color:#00C9FF"/>
		<stop  offset="1" style="stop-color:#3B72DE"/>
	</linearGradient>
	<path fill="url(#SVGID_3_)" d="M268.881,323.648h-51.5v-33.877c35.57-2.512,63.746-32.252,63.746-68.451
		c0-2.695-2.185-4.881-4.881-4.881c-2.697,0-4.881,2.186-4.881,4.881c0,32.459-26.407,58.865-58.865,58.865
		c-32.459,0-58.865-26.406-58.865-58.865c0-2.695-2.185-4.881-4.88-4.881c-2.697,0-4.882,2.186-4.882,4.881
		c0,36.199,28.174,65.939,63.746,68.451v33.877h-51.5c-2.697,0-4.882,2.186-4.882,4.881c0,2.695,2.185,4.881,4.882,4.881h112.762
		c2.695,0,4.881-2.186,4.881-4.881C273.762,325.834,271.576,323.648,268.881,323.648z"/>
</g>
</svg>
