<svg xmlns="http://www.w3.org/2000/svg" viewBox="0 0 32 32"><title>2-DSLR Camera</title><g id="_2-DSLR_Camera" data-name="2-DSLR Camera"><path d="M29,6H24.78L24,2.76A1,1,0,0,0,23,2H9a1,1,0,0,0-1,.76L7.22,6H3A3,3,0,0,0,0,9V27a3,3,0,0,0,3,3H29a3,3,0,0,0,3-3V9A3,3,0,0,0,29,6ZM2,14H9.08a7.93,7.93,0,0,0,0,8H2ZM30,27a1,1,0,0,1-1,1H3a1,1,0,0,1-1-1V24h8.73a8,8,0,0,0,10.55,0H30ZM10,18a6,6,0,1,1,6,6A6,6,0,0,1,10,18Zm20,4H22.92a7.93,7.93,0,0,0,0-8H30Zm0-10H21.27a8,8,0,0,0-10.55,0H2V9A1,1,0,0,1,3,8H8a1,1,0,0,0,1-.76L9.78,4H22.22L23,7.24A1,1,0,0,0,24,8h5a1,1,0,0,1,1,1Z"/><path d="M16,22a4,4,0,1,0-4-4A4,4,0,0,0,16,22Zm0-6a2,2,0,1,1-2,2A2,2,0,0,1,16,16Z"/><rect x="12" y="6" width="8" height="2"/></g></svg>