<?xml version="1.0" encoding="iso-8859-1"?>
<!-- Generator: Adobe Illustrator 19.0.0, SVG Export Plug-In . SVG Version: 6.00 Build 0)  -->
<svg xmlns="http://www.w3.org/2000/svg" xmlns:xlink="http://www.w3.org/1999/xlink" version="1.1" id="Layer_1" x="0px" y="0px" viewBox="0 0 512 512" style="enable-background:new 0 0 512 512;" xml:space="preserve">
<path style="fill:#DFDFE2;" d="M361.6,202.013h23.155c12.329,0,22.417,10.088,22.417,22.417v257.509  c0,12.33-10.088,22.417-22.417,22.417H127.246c-12.33,0-22.417-10.088-22.417-22.417V224.43c0-12.33,10.088-22.417,22.417-22.417  h33.345H361.6z"/>
<g>
	<path style="opacity:0.42;fill:#ACAAB1;enable-background:new    ;" d="M384.755,202.013h-10.256v270.604h-269.67v10.256   c0,12.33,10.088,22.417,22.417,22.417h257.509c12.329,0,22.417-10.088,22.417-22.417v-0.934v-9.322V224.43   C407.172,212.1,397.084,202.013,384.755,202.013z"/>
	<g style="opacity:0.5;">
		<path style="fill:#ACAAB1;" d="M104.74,324.743v158.13c0,12.33,10.088,22.417,22.417,22.417h59.14l49.864-133.257L104.74,324.743z    "/>
		<path style="fill:#ACAAB1;" d="M407.083,363.875v-138.51c0-12.33-10.088-22.417-22.417-22.417h-23.155H323.5l-33.454,118.814    L407.083,363.875z"/>
		<path style="fill:#ACAAB1;" d="M237.27,505.29h147.396c12.33,0,22.417-10.088,22.417-22.417v-52.692l-126.418-45.49L237.27,505.29    z"/>
	</g>
</g>
<path style="fill:#FF0C38;" d="M261.096,7.642L261.096,7.642c-94.332,0-153.432,101.952-106.553,183.81l66.786,116.619  c17.602,30.736,61.93,30.736,79.533,0l66.786-116.619C414.527,109.594,355.427,7.642,261.096,7.642z M261.096,190.415  c-28.479,0-51.567-23.087-51.567-51.567c0-28.479,23.088-51.567,51.567-51.567c28.479,0,51.567,23.087,51.567,51.567  C312.662,167.328,289.575,190.415,261.096,190.415z"/>
<path d="M261.095,198.057c32.648,0,59.208-26.56,59.208-59.208s-26.56-59.208-59.208-59.208s-59.208,26.56-59.208,59.208  S228.447,198.057,261.095,198.057z M261.095,94.924c24.22,0,43.924,19.705,43.924,43.924s-19.705,43.924-43.924,43.924  s-43.924-19.705-43.924-43.924S236.876,94.924,261.095,94.924z"/>
<path d="M384.755,194.371h-9.99c22.886-40.655,22.606-88.931-0.826-129.353C350.337,24.306,308.154,0,261.096,0h-0.001  c-47.058,0-89.241,24.306-112.842,65.018c-23.432,40.421-23.712,88.699-0.826,129.353h-20.181c-16.576,0-30.06,13.484-30.06,30.06  v257.508c0,16.576,13.484,30.06,30.06,30.06h59.094c0.015,0,0.032,0.002,0.047,0.002c0.009,0,0.017-0.002,0.025-0.002h198.341  c16.576,0,30.06-13.484,30.06-30.06V224.431C414.814,207.855,401.329,194.371,384.755,194.371z M399.53,224.431V352.07  l-95.807-34.475c1.359-1.81,2.622-3.718,3.771-5.726l58.537-102.214h18.725C392.901,209.656,399.53,216.284,399.53,224.431z   M161.477,72.684c20.834-35.941,58.075-57.4,99.618-57.4c41.543,0,78.784,21.457,99.618,57.398s20.948,78.921,0.303,114.971  L294.23,304.272c-6.887,12.028-19.274,19.209-33.134,19.209c-13.861,0-26.248-7.181-33.135-19.209l-66.787-116.618  C140.53,151.604,140.642,108.625,161.477,72.684z M127.246,209.656h28.915l58.537,102.214c9.645,16.841,26.989,26.897,46.398,26.897  c11.153,0,21.621-3.326,30.343-9.347l108.091,38.895v50.063l-116.188-41.808c-1.908-0.687-4.009-0.588-5.842,0.276  c-1.833,0.864-3.249,2.42-3.935,4.328l-41.576,115.544h-34.742l44.352-123.7c1.424-3.97-0.638-8.342-4.607-9.77l-124.519-44.806  v-94.006C112.471,216.284,119.1,209.656,127.246,209.656z M112.471,481.938V334.68l112.162,40.36l-43.624,121.673h-53.763  C119.1,496.713,112.471,490.085,112.471,481.938z M384.755,496.713H248.23l37.127-103.178l114.172,41.082v47.32  C399.53,490.085,392.901,496.713,384.755,496.713z"/>
<g>
</g>
<g>
</g>
<g>
</g>
<g>
</g>
<g>
</g>
<g>
</g>
<g>
</g>
<g>
</g>
<g>
</g>
<g>
</g>
<g>
</g>
<g>
</g>
<g>
</g>
<g>
</g>
<g>
</g>
</svg>
